Patient4_TMGait_0pt5_02_left_44_GRF.mot
version=1
nRows=52
nColumns=19
inDegrees=no
endheader
time	F1x	F1y	F1z	M1x	M1y	M1z	F2x	F2y	F2z	M2x	M2y	M2z	EC1x	EC1y	EC1z	EC2x	EC2y	EC2z
56.73	-20.1609	17.5988	-4.7772	-3.2259	-3.6311	6.4974	-37.3024	719.2404	-51.1539	266.2226	66.1493	705.3226	-0.0592	0.0182	-0.0073	-0.0462	0.0165	0.9585
56.7429	-13.4726	12.5157	-3.2078	-2.3991	-2.4204	5.0127	-33.614	731.1276	-56.4622	270.0997	69.817	713.6698	-0.0592	0.0182	-0.0073	-0.0462	0.0165	0.9585
56.7559	-7.8521	8.2534	-1.8831	-1.7226	-1.4113	3.8016	-30.4267	742.4297	-60.7	273.924	72.5469	720.8453	-0.0592	0.0182	-0.0073	-0.0462	0.0165	0.9585
56.7688	-3.6142	5.0625	-0.8748	-1.2313	-0.66356	2.9398	-27.8933	752.531	-63.5718	277.4865	74.1119	726.3733	-0.0592	0.0182	-0.0073	-0.0462	0.0165	0.9585
56.7817	-0.71046	2.9119	-0.17466	-0.91295	-0.16759	2.3913	-25.9577	761.1298	-65.0817	280.661	74.5093	730.0672	-0.0592	0.0182	-0.0073	-0.0462	0.0165	0.9585
56.7946	1.0459	1.6325	0.26109	-0.73327	0.11498	2.1079	-24.5045	768.0249	-65.4413	283.3393	73.9138	731.8551	-0.0592	0.0182	-0.0073	-0.0462	0.0165	0.9585
56.8076	1.9253	0.95761	0.49634	-0.63684	0.23515	1.9509	-23.3697	773.0075	-64.9163	285.4088	72.5376	731.6464	-0.0592	0.0182	-0.0073	-0.0462	0.0165	0.9585
56.8205	2.1797	0.61859	0.58898	-0.5646	0.24333	1.8104	-22.382	775.8847	-63.7798	286.7633	70.598	729.3732	-0.0592	0.0182	-0.0073	-0.0462	0.0165	0.9585
56.8334	2.0436	0.34506	0.59351	-0.45351	0.18532	1.5369	-21.3702	776.4468	-62.2359	287.3005	68.2459	724.9251	-0.0592	0.0182	-0.0073	-0.0462	0.0165	0.9585
56.8464	1.6839	-0.10819	0.54873	-0.24193	0.093104	0.97743	-20.2026	774.5395	-60.4352	286.9473	65.5892	718.232	-0.0592	0.0182	-0.0073	-0.0462	0.0165	0.9585
56.8593	1.2194	-0.94885	0.47777	0.1265	-0.012104	-0.010278	-18.766	770.1837	-58.4683	285.7002	62.6861	709.3704	-0.0592	0.0182	-0.0073	-0.0462	0.0165	0.9585
56.8722	0.75569	-2.3323	0.39537	0.69672	-0.10867	-1.5368	-16.9835	763.6299	-56.3966	283.6424	59.5747	698.603	-0.0592	0.0182	-0.0073	-0.0462	0.0165	0.9585
56.8851	0.35344	-4.3154	0.29181	1.4841	-0.16201	-3.6251	-14.8293	755.3623	-54.268	280.9452	56.2935	686.4014	-0.0592	0.0182	-0.0073	-0.0462	0.0165	0.9585
56.8981	0.096429	-6.8277	0.16716	2.4572	-0.14152	-6.2099	-12.2913	746.0282	-52.1698	277.8381	52.9211	673.3664	-0.0592	0.0182	-0.0073	-0.0462	0.0165	0.9585
56.911	0.056842	-9.5716	0.006181	3.5025	-0.0028381	-8.9897	-9.4156	736.3567	-50.2126	274.576	49.5697	660.1684	-0.0592	0.0182	-0.0073	-0.0462	0.0165	0.9585
56.9239	0.35689	-11.9503	-0.19045	4.3935	0.29981	-11.3973	-6.2713	727.0222	-48.5311	271.3946	46.3793	647.413	-0.0592	0.0182	-0.0073	-0.0462	0.0165	0.9585
56.9369	1.1058	-12.9409	-0.4366	4.7489	0.82272	-12.4368	-2.9465	718.6048	-47.2395	268.4919	43.4727	635.63	-0.0592	0.0182	-0.0073	-0.0462	0.0165	0.9585
56.9498	2.4438	-11.0474	-0.72122	4.0094	1.605	-10.6517	0.49953	711.4636	-46.4221	265.9901	40.9401	625.1376	-0.0592	0.0182	-0.0073	-0.0462	0.0165	0.9585
56.9627	4.4941	-4.2485	-1.0266	1.4204	2.671	-4.0466	3.9925	705.6097	-46.0854	263.8884	38.8085	615.959	-0.0592	0.0182	-0.0073	-0.0462	0.0165	0.9585
56.9756	7.3096	9.9094	-1.2944	-3.9311	3.9805	9.7993	7.4847	700.5858	-46.1659	262.0206	37.0439	607.7052	-0.0592	0.0182	-0.0073	-0.0462	0.0165	0.9585
56.9886	10.8064	34.0464	-1.4401	-13.016	5.4119	33.4758	10.9301	695.4538	-46.5072	260.0507	35.5387	599.5885	-0.0592	0.0182	-0.0073	-0.0462	0.0165	0.9585
57.0015	14.6463	70.4174	-1.3252	-26.66	6.6943	69.2446	14.256	688.8365	-46.8839	257.487	34.1382	590.4676	-0.0592	0.0182	-0.0073	-0.0462	0.0165	0.9585
57.0144	18.1395	119.9921	-0.76735	-45.1995	7.3733	118.1042	17.3882	679.0255	-47.0284	253.7187	32.6576	578.9375	-0.0592	0.0182	-0.0073	-0.0462	0.0165	0.9585
57.0274	20.0519	181.1082	0.47257	-67.9765	6.7472	178.491	20.2249	664.2315	-46.6795	248.1005	30.9266	563.5625	-0.0592	0.0182	-0.0073	-0.0462	0.0165	0.9585
57.0403	18.6978	247.8094	2.6967	-92.7244	3.8902	244.6154	22.6731	642.8752	-45.6238	240.0642	28.8097	543.0669	-0.0592	0.0182	-0.0073	-0.0462	0.0165	0.9585
57.0532	13.4674	309.8378	6.441	-115.5695	-1.9269	306.451	24.6298	614.1142	-43.775	229.3109	26.2796	516.7924	-0.0592	0.0182	-0.0073	-0.0462	0.0165	0.9585
57.0661	6.3341	358.9563	12.0235	-133.4169	-10.2515	355.7456	26.0764	578.4065	-41.2386	216.0168	23.4417	485.1036	-0.0592	0.0182	-0.0073	-0.0462	0.0165	0.9585
57.0791	-1.076	394.3749	17.9652	-145.9938	-18.9798	391.5867	27.0529	537.605	-38.3525	200.8446	20.5505	449.5088	-0.0592	0.0182	-0.0073	-0.0462	0.0165	0.9585
57.092	-7.5436	419.5313	23.6181	-154.618	-27.0036	417.3003	27.6778	494.0472	-35.5964	184.6346	17.9532	411.8862	-0.0592	0.0182	-0.0073	-0.0462	0.0165	0.9585
57.1049	-12.7061	438.7316	28.053	-160.9546	-33.2701	437.227	28.0125	449.9907	-33.1662	168.2074	15.7796	374.0866	-0.0592	0.0182	-0.0073	-0.0462	0.0165	0.9585
57.1179	-16.7956	455.1137	31.2573	-166.2079	-37.8482	454.5385	28.0952	407.1927	-31.0023	152.2206	13.9781	337.5362	-0.0592	0.0182	-0.0073	-0.0462	0.0165	0.9585
57.1308	-20.1252	470.6906	33.07	-171.1548	-40.7186	471.1563	27.8869	366.8521	-28.8604	137.1316	12.3649	303.233	-0.0592	0.0182	-0.0073	-0.0462	0.0165	0.9585
57.1437	-22.9092	486.8885	34.1071	-176.3	-42.5726	488.4796	27.3666	329.4964	-26.5864	123.1525	10.8217	271.5968	-0.0592	0.0182	-0.0073	-0.0462	0.0165	0.9585
57.1566	-25.1502	504.5816	34.8101	-181.9421	-43.8667	507.1822	26.5038	295.1139	-24.1306	110.283	9.2982	242.6228	-0.0592	0.0182	-0.0073	-0.0462	0.0165	0.9585
57.1696	-27.1053	523.8631	36.0707	-188.0671	-45.5569	527.2877	25.2957	263.2105	-21.622	98.3398	7.8777	215.8877	-0.0592	0.0182	-0.0073	-0.0462	0.0165	0.9585
57.1825	-28.8378	544.3297	38.2284	-194.5372	-48.0137	548.1583	23.7116	233.1207	-19.183	87.073	6.6406	190.828	-0.0592	0.0182	-0.0073	-0.0462	0.0165	0.9585
57.1954	-30.3967	565.957	41.595	-201.3524	-51.556	569.6432	21.6957	204.2426	-16.9664	76.252	5.7142	166.9529	-0.0592	0.0182	-0.0073	-0.0462	0.0165	0.9585
57.2084	-31.5847	588.9946	45.8654	-208.6641	-55.8224	591.7172	19.2371	176.1719	-15.0166	65.7269	5.1289	143.8893	-0.0592	0.0182	-0.0073	-0.0462	0.0165	0.9585
57.2213	-32.2215	613.6765	50.7916	-216.6127	-60.504	614.4888	16.3473	148.8464	-13.3347	55.4738	4.8785	121.5671	-0.0592	0.0182	-0.0073	-0.0462	0.0165	0.9585
57.2342	-32.0668	639.8686	55.8141	-225.2112	-64.9825	637.7043	13.2016	122.5097	-11.8332	45.5913	4.8368	100.113	-0.0592	0.0182	-0.0073	-0.0462	0.0165	0.9585
57.2471	-30.9847	666.8922	60.7524	-234.2422	-69.0427	660.6923	9.9518	97.6791	-10.434	36.277	4.892	79.9267	-0.0592	0.0182	-0.0073	-0.0462	0.0165	0.9585
57.2601	-28.9609	693.5996	65.3108	-243.3152	-72.3915	682.3801	6.8289	74.9429	-9.0351	27.7625	4.8889	61.4375	-0.0592	0.0182	-0.0073	-0.0462	0.0165	0.9585
57.273	-25.9738	718.6254	69.5005	-251.9456	-75.0371	701.5474	4.0023	54.8682	-7.5987	20.2641	4.7436	45.1141	-0.0592	0.0182	-0.0073	-0.0462	0.0165	0.9585
57.2859	-22.1049	740.7648	73.0604	-259.7147	-76.7574	717.188	1.639	37.8591	-6.1003	13.9351	4.3811	31.2851	-0.0592	0.0182	-0.0073	-0.0462	0.0165	0.9585
57.2989	-17.3918	759.1259	75.9296	-266.3122	-77.521	728.5763	-0.1196	24.1273	-4.5925	8.8506	3.8011	20.1153	-0.0592	0.0182	-0.0073	-0.0462	0.0165	0.9585
57.3118	-11.993	773.2716	77.875	-271.5855	-77.1624	735.4783	-1.2275	13.7322	-3.1534	5.0212	3.0453	11.6601	-0.0592	0.0182	-0.0073	-0.0462	0.0165	0.9585
57.3247	-6.0943	783.0441	78.9412	-275.4629	-75.7947	737.9509	-1.7287	6.4668	-1.9124	2.3621	2.2371	5.7179	-0.0592	0.0182	-0.0073	-0.0462	0.0165	0.9585
57.3376	-0.031334	788.5531	79.0899	-277.9535	-73.4917	736.332	-1.8642	1.9277	-0.96137	0.71118	1.5268	2.0027	-0.0592	0.0182	-0.0073	-0.0462	0.0165	0.9585
57.3506	5.7895	790.1008	78.5249	-279.1146	-70.5818	731.155	-1.7498	-0.52454	-0.31072	-0.1675	0.96661	-0.028383	-0.0592	0.0182	-0.0073	-0.0462	0.0165	0.9585
57.3635	11.0073	788.2003	77.3339	-279.0853	-67.2678	723.0906	-1.5487	-1.4863	0.087288	-0.50039	0.5691	-0.82437	-0.0592	0.0182	-0.0073	-0.0462	0.0165	0.9585
57.3764	15.3321	783.5958	75.7507	-278.0876	-63.8666	712.9843	-1.3083	-1.5188	0.28734	-0.49264	0.31315	-0.86403	-0.0592	0.0182	-0.0073	-0.0462	0.0165	0.9585
57.3894	18.6592	777.1899	73.821	-276.4261	-60.464	701.6896	-1.0859	-1.0225	0.3526	-0.29457	0.17056	-0.46243	-0.0592	0.0182	-0.0073	-0.0462	0.0165	0.9585
